<svg width="9" height="5" viewBox="0 0 9 5" fill="none" xmlns="http://www.w3.org/2000/svg">
<path fill-rule="evenodd" clip-rule="evenodd" d="M1.17093 0.280495C1.28553 0.170231 1.43923 0.109978 1.59824 0.112978C1.75725 0.115979 1.90856 0.181986 2.01893 0.296495L4.98693 3.4469L7.95493 0.296495C8.00888 0.23702 8.07422 0.188978 8.14707 0.155217C8.21993 0.121457 8.29882 0.102664 8.37908 0.0999522C8.45933 0.0972407 8.53931 0.110665 8.61428 0.139431C8.68925 0.168197 8.75768 0.211719 8.81552 0.267418C8.87336 0.323116 8.91943 0.389858 8.95101 0.463689C8.98258 0.53752 8.99901 0.616938 8.99933 0.697236C8.99965 0.777534 8.98385 0.857079 8.95286 0.931158C8.92187 1.00524 8.87633 1.07234 8.81893 1.1285L5.41893 4.7285C5.36296 4.78656 5.29585 4.83275 5.22163 4.8643C5.1474 4.89585 5.06758 4.91211 4.98693 4.91211C4.90628 4.91211 4.82645 4.89585 4.75223 4.8643C4.678 4.83275 4.6109 4.78656 4.55493 4.7285L1.15493 1.1285C1.04466 1.01389 0.984411 0.860192 0.987412 0.701183C0.990412 0.542174 1.05642 0.390861 1.17093 0.280495Z" fill="#D6594B"/>
</svg>
