<svg width="13" height="13" viewBox="0 0 13 13" fill="none" xmlns="http://www.w3.org/2000/svg">
<path d="M11.4917 1.68519C9.91148 0.104937 7.34017 0.104937 5.75972 1.68519L0.846471 6.59842C-0.282219 7.72723 -0.282145 9.5639 0.84662 10.6926C1.41105 11.2571 2.15222 11.5393 2.89368 11.5392C3.63495 11.5391 4.37652 11.257 4.94085 10.6926L9.44452 6.18885C9.77263 5.86079 9.95335 5.42458 9.9534 4.96062C9.9534 4.49662 9.77275 4.06044 9.44459 3.73228C8.76726 3.05502 7.66519 3.05505 6.98801 3.7324L4.04278 6.67756C3.81667 6.90365 3.81667 7.27027 4.04273 7.49641C4.26882 7.72257 4.63544 7.7225 4.86158 7.49641L7.80684 4.55123C8.03261 4.32546 8.3999 4.32541 8.62569 4.55118C8.73505 4.66053 8.79529 4.80594 8.79529 4.96059C8.79529 5.11524 8.73507 5.2606 8.62569 5.37L4.122 9.87377C3.44469 10.551 2.34272 10.5511 1.66547 9.87382C0.988217 9.19652 0.988167 8.0945 1.66535 7.41719L6.57858 2.50404C7.70744 1.37522 9.54411 1.37522 10.6728 2.50404C11.2197 3.05081 11.5208 3.77784 11.5208 4.55113C11.5208 5.32441 11.2196 6.05144 10.6728 6.59827L5.75965 11.5116C5.53356 11.7377 5.53356 12.1043 5.7597 12.3304C5.87277 12.4435 6.02095 12.5 6.16911 12.5C6.3173 12.5 6.46548 12.4434 6.57855 12.3304L11.4916 7.41714C12.2572 6.65163 12.6788 5.63381 12.6788 4.55115C12.6788 3.46852 12.2572 2.4507 11.4917 1.68519Z" fill="#091228"/>
</svg>
