<svg width="20" height="21" viewBox="0 0 20 21" fill="none" xmlns="http://www.w3.org/2000/svg">
<path d="M13.1249 5.5C13.1249 6.3288 12.7957 7.12366 12.2096 7.70971C11.6236 8.29576 10.8287 8.625 9.9999 8.625C9.1711 8.625 8.37624 8.29576 7.79019 7.70971C7.20414 7.12366 6.8749 6.3288 6.8749 5.5C6.8749 4.6712 7.20414 3.87634 7.79019 3.29029C8.37624 2.70424 9.1711 2.375 9.9999 2.375C10.8287 2.375 11.6236 2.70424 12.2096 3.29029C12.7957 3.87634 13.1249 4.6712 13.1249 5.5ZM3.75073 17.265C3.77751 15.6253 4.44768 14.0618 5.61671 12.9117C6.78575 11.7616 8.35997 11.1171 9.9999 11.1171C11.6398 11.1171 13.2141 11.7616 14.3831 12.9117C15.5521 14.0618 16.2223 15.6253 16.2491 17.265C14.2886 18.164 12.1567 18.6279 9.9999 18.625C7.7699 18.625 5.65323 18.1383 3.75073 17.265Z" stroke="#68738D" stroke-width="1.5" stroke-linecap="round" stroke-linejoin="round"/>
</svg>
