<svg width="25" height="24" viewBox="0 0 25 24" fill="none" xmlns="http://www.w3.org/2000/svg">
<path d="M9.74624 0.28937C9.17651 0.442242 8.3819 0.702127 7.99209 0.885574C7.60227 1.06902 7.21246 1.2219 7.1375 1.2219C7.04754 1.2219 6.97258 1.26776 6.97258 1.34419C6.97258 1.40534 6.77767 1.54293 6.53779 1.64994C6.05802 1.86396 4.73866 2.88821 4.12396 3.51499C3.50925 4.14177 2.50474 5.48706 2.29484 5.97625C2.18989 6.22085 2.05496 6.41958 1.99499 6.41958C1.92002 6.41958 1.87504 6.49602 1.87504 6.58774C1.87504 6.66418 1.71012 7.10751 1.51522 7.53556C0.390761 10.0885 0.390761 14.369 1.51522 16.922C1.71012 17.35 1.87504 17.7933 1.87504 17.8698C1.87504 17.9615 1.92002 18.0379 1.99499 18.0379C2.05496 18.0379 2.18989 18.2367 2.29484 18.4813C2.69964 19.3985 3.95904 20.8814 5.21843 21.9209C5.98306 22.5477 8.68175 24 9.08656 24C9.55133 24 9.67127 23.6484 9.67127 22.3184V21.0037H8.42688C7.28743 21.0037 7.12251 20.9578 6.56777 20.5604C6.17796 20.2699 5.86312 19.8571 5.6832 19.4138C5.53327 19.0316 5.08349 18.4048 4.69368 18.0074C4.28888 17.6099 3.97403 17.243 3.97403 17.1971C3.97403 17.1513 4.21391 17.1207 4.51377 17.1207C4.96355 17.1207 5.17345 17.243 5.6832 17.7781C6.01304 18.145 6.40285 18.573 6.5228 18.7412C6.95759 19.3374 7.46734 19.5667 8.32193 19.5667C9.56632 19.5667 9.80621 19.4597 9.91116 18.8635C9.95614 18.573 10.136 18.1755 10.286 17.9768L10.5558 17.6252L9.38641 17.3653C6.61275 16.7538 5.17345 14.8735 5.17345 11.8466C5.17345 10.6083 5.4733 9.44647 5.93808 8.88084C6.32789 8.42222 6.34288 8.34579 6.22294 7.64257C6.13298 7.21453 6.14798 6.58774 6.25293 5.99154C6.44783 4.79913 6.44783 4.79913 8.32193 5.62464C8.60679 5.74694 9.02659 5.99154 9.26647 6.14441C9.6263 6.4043 9.73125 6.41958 10.241 6.25142C10.9906 5.97625 14.364 5.97625 15.0986 6.23614C15.6084 6.41958 15.7134 6.4043 16.0732 6.14441C16.5829 5.77752 18.3221 5.04373 18.6819 5.04373C19.0717 5.04373 19.1617 5.4412 19.1767 7.04636C19.1917 7.94832 19.2666 8.60567 19.3716 8.72797C19.9413 9.43119 20.2262 10.486 20.2112 11.8466C20.1812 14.9652 18.8318 16.7232 15.9233 17.3653C14.8588 17.6099 14.7838 17.6558 14.9937 17.8851C15.4885 18.4354 15.6684 19.4138 15.6684 21.5387C15.6684 24.2293 15.7433 24.3057 17.2276 23.6178C17.6774 23.4038 18.0822 23.2356 18.1422 23.2356C18.3971 23.2356 20.496 21.6763 21.2157 20.9425C22.61 19.5361 24.0043 16.9373 24.4241 14.9958C24.9189 12.6874 24.649 9.4159 23.8244 7.53556C23.6295 7.10751 23.4646 6.66418 23.4646 6.58774C23.4646 6.49602 23.4196 6.41958 23.3447 6.41958C23.2847 6.41958 23.1498 6.22085 23.0448 5.97625C22.8349 5.48706 21.8304 4.14177 21.2157 3.51499C20.601 2.88821 19.2816 1.86396 18.8019 1.64994C18.562 1.54293 18.3671 1.40534 18.3671 1.34419C18.3671 1.26776 18.2921 1.2219 18.2021 1.2219C18.1272 1.2219 17.6924 1.05374 17.2726 0.855C15.3835 -0.0010891 11.9802 -0.260975 9.74624 0.28937Z" fill="#091228"/>
</svg>
