<svg width="20" height="21" viewBox="0 0 20 21" fill="none" xmlns="http://www.w3.org/2000/svg">
<path d="M14.7141 14.3806L11.1783 17.9164C11.0236 18.0712 10.84 18.194 10.6379 18.2778C10.4358 18.3616 10.2191 18.4047 10.0003 18.4047C9.78155 18.4047 9.5649 18.3616 9.36279 18.2778C9.16067 18.194 8.97705 18.0712 8.82242 17.9164L5.28576 14.3806C4.35344 13.4482 3.71853 12.2603 3.46133 10.9671C3.20412 9.67394 3.33616 8.33352 3.84076 7.11536C4.34535 5.89721 5.19984 4.85604 6.29616 4.12351C7.39248 3.39098 8.68139 3 9.99992 3C11.3184 3 12.6074 3.39098 13.7037 4.12351C14.8 4.85604 15.6545 5.89721 16.1591 7.11536C16.6637 8.33352 16.7957 9.67394 16.5385 10.9671C16.2813 12.2603 15.6464 13.4482 14.7141 14.3806Z" stroke="#68738D" stroke-width="1.5" stroke-linecap="round" stroke-linejoin="round"/>
<path d="M12.5 9.66699C12.5 10.33 12.2366 10.9659 11.7678 11.4348C11.2989 11.9036 10.663 12.167 10 12.167C9.33696 12.167 8.70107 11.9036 8.23223 11.4348C7.76339 10.9659 7.5 10.33 7.5 9.66699C7.5 9.00395 7.76339 8.36807 8.23223 7.89922C8.70107 7.43038 9.33696 7.16699 10 7.16699C10.663 7.16699 11.2989 7.43038 11.7678 7.89922C12.2366 8.36807 12.5 9.00395 12.5 9.66699Z" stroke="#68738D" stroke-width="1.5" stroke-linecap="round" stroke-linejoin="round"/>
</svg>
