<svg width="36" height="36" viewBox="0 0 36 36" fill="none" xmlns="http://www.w3.org/2000/svg">
<path d="M26.3541 21.3545C24.7173 22.0127 22.9232 22.1753 21.1948 21.8222C19.4663 21.4691 17.8797 20.6158 16.6323 19.3683C15.3848 18.1209 14.5315 16.5343 14.1784 14.8058C13.8253 13.0774 13.9879 11.2833 14.6461 9.64648C12.7078 10.4272 11.1015 11.8579 10.1024 13.6932C9.1034 15.5285 8.77391 17.6542 9.17043 19.7059C9.56695 21.7575 10.6648 23.6074 12.2758 24.9383C13.8867 26.2692 15.9105 26.9982 18.0001 27.0005C19.797 27.0005 21.5529 26.4629 23.0417 25.4567C24.5305 24.4505 25.6841 23.0218 26.3541 21.3545Z" stroke="#68738D" stroke-width="1.5" stroke-linecap="round" stroke-linejoin="round"/>
</svg>
