<svg width="24" height="24" viewBox="0 0 24 24" fill="none" xmlns="http://www.w3.org/2000/svg">
<g clip-path="url(#clip0_383_18232)">
<path fill-rule="evenodd" clip-rule="evenodd" d="M11.9916 4.65384L7.40495 12.985C9.19192 14.7179 9.61432 16.3966 9.61432 18.5518H14.3338C14.3338 16.3965 14.7914 14.7179 16.5785 12.985L11.9919 4.65384H11.9916ZM14.924 23.9888H9.05636V19.3533H14.924V23.9888ZM11.9916 12.5436C12.5114 12.5436 12.9311 12.1212 12.9311 11.604C12.9311 11.0842 12.5114 10.6618 11.9916 10.6618C11.4718 10.6618 11.0521 11.0842 11.0521 11.604C11.0521 12.1212 11.4718 12.5436 11.9916 12.5436ZM2.06528 9.40808H2.9479C3.09405 7.14179 4.07425 5.10299 5.5825 3.59482C5.94797 3.22936 6.3434 2.89354 6.76577 2.59572H3.35136C3.05353 3.16427 2.45786 3.55149 1.77282 3.55149C0.789912 3.55149 -0.00878906 2.75275 -0.00878906 1.76989C-0.00878906 0.786982 0.789955 -0.0117188 1.77282 -0.0117188C2.45786 -0.0117188 3.05354 0.375511 3.35136 0.944057H10.1041V-0.0117188H13.8786V0.944057H20.6313C20.9291 0.375503 21.5248 -0.0117188 22.2098 -0.0117188C23.1927 -0.0117188 23.9914 0.787025 23.9914 1.76989C23.9914 2.75279 23.1927 3.55149 22.2098 3.55149C21.5248 3.55149 20.9291 3.16426 20.6313 2.59572H17.2142C17.6366 2.89355 18.0347 3.22937 18.4002 3.59482C19.9084 5.10304 20.8885 7.14183 21.0348 9.40808H21.9174V12.5572H18.7683V9.40808H19.5319C19.3857 7.55597 18.5761 5.89089 17.3387 4.65341C16.3966 3.71122 15.2079 3.01795 13.8785 2.67693V3.76261H10.104V2.67693C8.77452 3.01812 7.58324 3.71122 6.64371 4.65341C5.40636 5.89077 4.59407 7.55606 4.45058 9.40808H5.21414V12.5572H2.06507L2.06528 9.40808Z" fill="white"/>
<path d="M0.000893025 23.9957C0.000390772 23.9962 -0.000278884 23.9964 -0.00111594 23.9964H-0.00245525C-0.00429682 23.9964 -0.00563613 23.996 -0.00647319 23.995C-0.00747769 23.9942 -0.0078125 23.993 -0.0078125 23.9917C-0.0078125 23.99 -0.00747767 23.9887 -0.00647319 23.9877C-0.00563613 23.9868 -0.00429682 23.9863 -0.00245525 23.9863H-0.00111594C-0.000278884 23.9863 0.000390772 23.9867 0.000893025 23.987V23.989C0.000390772 23.9887 -0.000278884 23.9883 -0.00111594 23.9883H-0.00245525C-0.00345972 23.9883 -0.00412941 23.9887 -0.00446422 23.989C-0.00496647 23.9895 -0.00513388 23.9903 -0.00513388 23.9917C-0.00513388 23.9927 -0.00496647 23.9934 -0.00446422 23.9937C-0.00412941 23.9942 -0.00345972 23.9944 -0.00245525 23.9944H-0.00111594C-0.000278884 23.9944 0.000390772 23.9942 0.000893025 23.9937V23.9957Z" fill="white"/>
<path d="M0.00828693 23.9922H0.00761728C0.00761728 23.9919 0.00728243 23.9916 0.00694762 23.9916C0.00644537 23.9916 0.00594312 23.9919 0.00560831 23.9922C0.00510606 23.9927 0.00493865 23.9934 0.00493865 23.9943V23.9976H0.00292969V23.9902H0.00493865V23.9916C0.00527348 23.9912 0.00577571 23.9909 0.00627797 23.9909C0.00661282 23.9906 0.00711503 23.9902 0.00761728 23.9902H0.00828693V23.9922Z" fill="white"/>
<path d="M0.0168247 23.9936V23.9949H0.010798C0.0111329 23.9954 0.0114677 23.9959 0.0114677 23.9963H0.0134767H0.014816C0.0151508 23.9959 0.015653 23.9956 0.0161553 23.9956V23.9969C0.015653 23.9974 0.0151508 23.9976 0.014816 23.9976H0.012807C0.0114677 23.9976 0.0102958 23.9974 0.00945872 23.9969C0.00895647 23.9961 0.00878906 23.9953 0.00878906 23.9943C0.00878906 23.9929 0.00895647 23.9921 0.00945872 23.9916C0.0102958 23.9907 0.0114677 23.9902 0.012807 23.9902C0.0136441 23.9902 0.0144812 23.9907 0.0154856 23.9916C0.0163227 23.9921 0.0168247 23.9927 0.0168247 23.9936ZM0.0141461 23.9929C0.0141461 23.9926 0.0138112 23.9922 0.0134764 23.9922C0.0134764 23.9919 0.0131416 23.9916 0.0128068 23.9916C0.0123045 23.9916 0.0118023 23.9919 0.0114675 23.9922C0.0114675 23.9922 0.0111326 23.9926 0.0107978 23.9929H0.0141461Z" fill="white"/>
<path d="M0.0215961 23.9943C0.0210938 23.9943 0.0205916 23.9946 0.0202567 23.9949C0.0197545 23.9949 0.0195871 23.9953 0.0195871 23.9956V23.9963H0.0209264H0.0222657C0.0226005 23.9959 0.0229354 23.9954 0.0229354 23.9949V23.9943H0.0215961ZM0.0249443 23.9936V23.9976H0.0229354V23.9963C0.0224331 23.9968 0.0219309 23.9973 0.0215961 23.9976H0.0202567C0.0192522 23.9976 0.0185826 23.9974 0.0182478 23.9969C0.0177455 23.9966 0.0175781 23.9961 0.0175781 23.9956C0.0175781 23.9948 0.0177455 23.9941 0.0182478 23.9936C0.0185826 23.9932 0.0195871 23.9929 0.0209264 23.9929H0.0229354C0.0229354 23.9926 0.0226005 23.9922 0.0222657 23.9922C0.0217635 23.9919 0.0212612 23.9916 0.0209264 23.9916H0.0195871C0.0190848 23.9916 0.0185826 23.9919 0.0182478 23.9922V23.9902H0.0195871H0.0209264C0.0222657 23.9902 0.0231028 23.9906 0.023605 23.9909C0.0244421 23.9914 0.0249443 23.9922 0.0249443 23.9936Z" fill="white"/>
<path d="M0.0303851 23.9883V23.9903H0.0323941V23.9916H0.0303851V23.995V23.9956H0.0310548H0.0323941V23.9977H0.0303851C0.0293806 23.9977 0.028711 23.9975 0.0283762 23.997C0.0278739 23.9967 0.0277065 23.996 0.0277065 23.995V23.9916H0.0263672V23.9903H0.0277065V23.9883H0.0303851Z" fill="white"/>
<path d="M0.0412388 23.9936V23.9949H0.0352121C0.0355469 23.9954 0.0358817 23.9959 0.0358817 23.9963H0.0378907H0.03923C0.0395648 23.9959 0.0400671 23.9956 0.0405693 23.9956V23.9969C0.0400671 23.9974 0.0395648 23.9976 0.03923 23.9976H0.0372211C0.0358817 23.9976 0.0347098 23.9974 0.0338728 23.9969C0.0333705 23.9961 0.0332031 23.9953 0.0332031 23.9943C0.0332031 23.9929 0.0333705 23.9921 0.0338728 23.9916C0.0347098 23.9907 0.0358817 23.9902 0.0372211 23.9902C0.0380581 23.9902 0.0388952 23.9907 0.0398997 23.9916C0.0407367 23.9921 0.0412388 23.9927 0.0412388 23.9936ZM0.0385602 23.9929C0.0385602 23.9926 0.0382253 23.9922 0.0378905 23.9922C0.0378905 23.9919 0.0375557 23.9916 0.0372208 23.9916C0.0367186 23.9916 0.0362163 23.9919 0.0358815 23.9922C0.0358815 23.9922 0.0355467 23.9926 0.0352119 23.9929H0.0385602Z" fill="white"/>
<path d="M0.048326 23.9923V23.9883H0.0510046V23.9983H0.048326V23.997C0.048326 23.9975 0.0479911 23.998 0.0476563 23.9983H0.046317C0.0449777 23.9983 0.0439732 23.9982 0.0436384 23.9977C0.0431362 23.9968 0.0429688 23.996 0.0429688 23.995C0.0429688 23.9936 0.0431362 23.9928 0.0436384 23.9923C0.0439732 23.9915 0.0449777 23.991 0.046317 23.991C0.0466518 23.991 0.0471541 23.9913 0.0476563 23.9916C0.0479911 23.9916 0.048326 23.992 0.048326 23.9923ZM0.0469867 23.997C0.0473215 23.997 0.0476563 23.9968 0.0476563 23.9963C0.0479911 23.996 0.048326 23.9955 0.048326 23.995C0.048326 23.9941 0.0479911 23.9935 0.0476563 23.993C0.0476563 23.9926 0.0473215 23.9923 0.0469867 23.9923C0.0464844 23.9923 0.0459822 23.9926 0.0456474 23.993C0.0451451 23.9935 0.0449777 23.9941 0.0449777 23.995C0.0449777 23.9955 0.0451451 23.996 0.0456474 23.9963C0.0459822 23.9968 0.0464844 23.997 0.0469867 23.997Z" fill="white"/>
<path d="M0.0616351 23.995C0.0619699 23.995 0.0623048 23.9949 0.0623048 23.9944C0.0626396 23.994 0.0629744 23.9935 0.0629744 23.993C0.0629744 23.9922 0.0626396 23.9915 0.0623048 23.991C0.0623048 23.9907 0.0619699 23.9903 0.0616351 23.9903C0.0606306 23.9903 0.059961 23.9907 0.0596262 23.991V23.993V23.9944C0.059961 23.9949 0.0606306 23.995 0.0616351 23.995ZM0.0596262 23.9903C0.059961 23.99 0.0604632 23.9897 0.0609655 23.9897C0.0613003 23.9893 0.0618025 23.989 0.0623048 23.989C0.0631418 23.989 0.0638115 23.9895 0.0643137 23.9903C0.0651508 23.9908 0.0656531 23.9917 0.0656531 23.993C0.0656531 23.994 0.0651508 23.9949 0.0643137 23.9957C0.0638115 23.9962 0.0631418 23.9964 0.0623048 23.9964H0.0609655C0.0604632 23.996 0.059961 23.9955 0.0596262 23.995V23.9964H0.0576172V23.9863H0.0596262V23.9903Z" fill="white"/>
<path d="M0.0664062 23.9902H0.0690849L0.0710938 23.9956L0.0724332 23.9902H0.0751118L0.0717635 23.9983C0.0717635 23.9991 0.0714287 23.9996 0.0710938 23.9996C0.0705916 23.9999 0.0699219 24.0003 0.0690849 24.0003H0.0677456V23.9989H0.0684152H0.0690849C0.0694197 23.9989 0.0697545 23.9986 0.0697545 23.9983V23.9976L0.0664062 23.9902Z" fill="white"/>
<path d="M0.0830637 23.9963V24.0003H0.0810547V23.9902H0.0830637V23.9916C0.0833985 23.9912 0.0839007 23.9909 0.084403 23.9909C0.0847378 23.9906 0.08524 23.9902 0.0857423 23.9902C0.0865793 23.9902 0.087249 23.9907 0.0877512 23.9916C0.0885883 23.9921 0.0890906 23.9929 0.0890906 23.9943C0.0890906 23.9953 0.0885883 23.9961 0.0877512 23.9969C0.087249 23.9974 0.0865793 23.9976 0.0857423 23.9976H0.084403C0.0839007 23.9973 0.0833985 23.9968 0.0830637 23.9963ZM0.0850726 23.9916C0.0840681 23.9916 0.0833985 23.9919 0.0830637 23.9922V23.9943V23.9956C0.0833985 23.9961 0.0840681 23.9963 0.0850726 23.9963C0.0854074 23.9963 0.0857423 23.9961 0.0857423 23.9956C0.0860771 23.9953 0.0864119 23.9948 0.0864119 23.9943C0.0864119 23.9934 0.0860771 23.9927 0.0857423 23.9922C0.0857423 23.9919 0.0854074 23.9916 0.0850726 23.9916Z" fill="white"/>
<path d="M0.0938617 23.9916C0.0933594 23.9916 0.0928572 23.9919 0.0925224 23.9922C0.0920201 23.9927 0.0918527 23.9934 0.0918527 23.9943C0.0918527 23.9948 0.0920201 23.9953 0.0925224 23.9956C0.0928572 23.9961 0.0933594 23.9963 0.0938617 23.9963C0.0941965 23.9963 0.0945313 23.9961 0.0945313 23.9956C0.0948661 23.9953 0.095201 23.9948 0.095201 23.9943C0.095201 23.9934 0.0948661 23.9927 0.0945313 23.9922C0.0945313 23.9919 0.0941965 23.9916 0.0938617 23.9916ZM0.0938617 23.9902C0.095201 23.9902 0.0960381 23.9907 0.0965403 23.9916C0.0973774 23.9921 0.0978796 23.9929 0.0978796 23.9943C0.0978796 23.9953 0.0973774 23.9961 0.0965403 23.9969C0.0960381 23.9974 0.095201 23.9976 0.0938617 23.9976C0.0925224 23.9976 0.0913505 23.9974 0.0905134 23.9969C0.0900112 23.9961 0.0898438 23.9953 0.0898438 23.9943C0.0898438 23.9929 0.0900112 23.9921 0.0905134 23.9916C0.0913505 23.9907 0.0925224 23.9902 0.0938617 23.9902Z" fill="white"/>
<path d="M0.101618 23.9963V24.0003H0.0996094V23.9902H0.101618V23.9916C0.101953 23.9912 0.102455 23.9909 0.102958 23.9909C0.103293 23.9906 0.103795 23.9902 0.104297 23.9902C0.105134 23.9902 0.105804 23.9907 0.106306 23.9916C0.107143 23.9921 0.107645 23.9929 0.107645 23.9943C0.107645 23.9953 0.107143 23.9961 0.106306 23.9969C0.105804 23.9974 0.105134 23.9976 0.104297 23.9976H0.102958C0.102455 23.9973 0.101953 23.9968 0.101618 23.9963ZM0.103627 23.9916C0.102623 23.9916 0.101953 23.9919 0.101618 23.9922V23.9943V23.9956C0.101953 23.9961 0.102623 23.9963 0.103627 23.9963C0.103962 23.9963 0.104297 23.9961 0.104297 23.9956C0.104632 23.9953 0.104967 23.9948 0.104967 23.9943C0.104967 23.9934 0.104632 23.9927 0.104297 23.9922C0.104297 23.9919 0.103962 23.9916 0.103627 23.9916Z" fill="white"/>
<path d="M0.116072 23.9902V23.9922H0.114732C0.114732 23.9919 0.114397 23.9916 0.114063 23.9916C0.113058 23.9916 0.112388 23.9919 0.112054 23.9922C0.111551 23.9927 0.111384 23.9934 0.111384 23.9943C0.111384 23.9948 0.111551 23.9953 0.112054 23.9956C0.112388 23.9961 0.113058 23.9963 0.114063 23.9963H0.114732C0.115067 23.9959 0.115569 23.9956 0.116072 23.9956V23.9976H0.114732H0.113393C0.112054 23.9976 0.110882 23.9974 0.110045 23.9969C0.109542 23.9961 0.109375 23.9953 0.109375 23.9943C0.109375 23.9929 0.109542 23.9921 0.110045 23.9916C0.110882 23.9907 0.112054 23.9902 0.113393 23.9902H0.114732H0.116072Z" fill="white"/>
<path d="M0.121205 23.9916C0.120703 23.9916 0.120201 23.9919 0.119866 23.9922C0.119364 23.9927 0.119196 23.9934 0.119196 23.9943C0.119196 23.9948 0.119364 23.9953 0.119866 23.9956C0.120201 23.9961 0.120703 23.9963 0.121205 23.9963C0.12154 23.9963 0.121875 23.9961 0.121875 23.9956C0.12221 23.9953 0.122545 23.9948 0.122545 23.9943C0.122545 23.9934 0.12221 23.9927 0.121875 23.9922C0.121875 23.9919 0.12154 23.9916 0.121205 23.9916ZM0.121205 23.9902C0.122545 23.9902 0.123382 23.9907 0.123884 23.9916C0.124721 23.9921 0.125223 23.9929 0.125223 23.9943C0.125223 23.9953 0.124721 23.9961 0.123884 23.9969C0.123382 23.9974 0.122545 23.9976 0.121205 23.9976C0.119866 23.9976 0.118694 23.9974 0.117857 23.9969C0.117355 23.9961 0.117188 23.9953 0.117188 23.9943C0.117188 23.9929 0.117355 23.9921 0.117857 23.9916C0.118694 23.9907 0.119866 23.9902 0.121205 23.9902Z" fill="white"/>
<path d="M0.13231 23.9922H0.131641C0.131641 23.9919 0.131306 23.9916 0.130971 23.9916C0.130469 23.9916 0.129967 23.9919 0.129632 23.9922C0.129129 23.9927 0.128962 23.9934 0.128962 23.9943V23.9976H0.126953V23.9902H0.128962V23.9916C0.129297 23.9912 0.129799 23.9909 0.130301 23.9909C0.130636 23.9906 0.131138 23.9902 0.131641 23.9902H0.13231V23.9922Z" fill="white"/>
<path d="M0.141155 23.9929V23.9976H0.138477V23.9943V23.9929V23.9922H0.137807V23.9916C0.137305 23.9916 0.136802 23.9919 0.136468 23.9922C0.135965 23.9927 0.135798 23.9934 0.135798 23.9943V23.9976H0.133789V23.9902H0.135798V23.9916C0.136133 23.9912 0.136635 23.9909 0.137137 23.9909C0.137472 23.9906 0.137974 23.9902 0.138477 23.9902C0.139314 23.9902 0.139983 23.9906 0.140486 23.9909C0.14082 23.9914 0.141155 23.9921 0.141155 23.9929Z" fill="white"/>
<path d="M0.146596 23.9943C0.146094 23.9943 0.145592 23.9946 0.145257 23.9949C0.144754 23.9949 0.144587 23.9953 0.144587 23.9956V23.9963H0.145926H0.147266C0.147601 23.9959 0.147935 23.9954 0.147935 23.9949V23.9943H0.146596ZM0.149944 23.9936V23.9976H0.147935V23.9963C0.147433 23.9968 0.146931 23.9973 0.146596 23.9976H0.145257C0.144252 23.9976 0.143583 23.9974 0.143248 23.9969C0.142746 23.9966 0.142578 23.9961 0.142578 23.9956C0.142578 23.9948 0.142746 23.9941 0.143248 23.9936C0.143583 23.9932 0.144587 23.9929 0.145926 23.9929H0.147935C0.147935 23.9926 0.147601 23.9922 0.147266 23.9922C0.146763 23.9919 0.146261 23.9916 0.145926 23.9916H0.144587C0.144085 23.9916 0.143583 23.9919 0.143248 23.9922V23.9902H0.144587H0.145926C0.147266 23.9902 0.148103 23.9906 0.148605 23.9909C0.149442 23.9914 0.149944 23.9922 0.149944 23.9936Z" fill="white"/>
<path d="M0.157701 23.9922H0.157031C0.157031 23.9919 0.156696 23.9916 0.156362 23.9916C0.155859 23.9916 0.155357 23.9919 0.155022 23.9922C0.15452 23.9927 0.154353 23.9934 0.154353 23.9943V23.9976H0.152344V23.9902H0.154353V23.9916C0.154688 23.9912 0.15519 23.9909 0.155692 23.9909C0.156027 23.9906 0.156529 23.9902 0.157031 23.9902H0.157701V23.9922Z" fill="white"/>
<path d="M0.162221 23.9883V23.9903H0.16423V23.9916H0.162221V23.995V23.9956H0.162891H0.16423V23.9977H0.162221C0.161217 23.9977 0.160547 23.9975 0.160212 23.997C0.15971 23.9967 0.159542 23.996 0.159542 23.995V23.9916H0.158203V23.9903H0.159542V23.9883H0.162221Z" fill="white"/>
<path d="M0.171066 23.9902V23.9922C0.170564 23.9919 0.170061 23.9916 0.169727 23.9916H0.168387H0.167048V23.9922V23.9929H0.168387H0.169057C0.169894 23.9929 0.170564 23.9932 0.171066 23.9936C0.171401 23.9941 0.171736 23.9948 0.171736 23.9956C0.171736 23.9961 0.171401 23.9966 0.171066 23.9969C0.170564 23.9974 0.169727 23.9976 0.168387 23.9976H0.167048H0.165039V23.9956C0.165374 23.9956 0.165876 23.9959 0.166378 23.9963H0.168387H0.169057C0.169392 23.9959 0.169727 23.9956 0.169727 23.9956C0.169727 23.9953 0.169392 23.9949 0.169057 23.9949H0.168387H0.167718C0.166713 23.9946 0.166044 23.9943 0.165709 23.9943C0.165206 23.9939 0.165039 23.9932 0.165039 23.9922C0.165039 23.9919 0.165206 23.9914 0.165709 23.9909C0.166044 23.9906 0.167048 23.9902 0.168387 23.9902H0.169727H0.171066Z" fill="white"/>
</g>
<defs>
<clipPath id="clip0_383_18232">
<rect width="24" height="24" fill="white"/>
</clipPath>
</defs>
</svg>
