<svg width="26" height="26" viewBox="0 0 26 26" fill="none" xmlns="http://www.w3.org/2000/svg">
<path d="M8.53496 16.698C8.26392 16.5355 7.99309 16.3457 7.72203 16.1289V16.1559C7.61373 17.0772 7.45099 18.2152 7.26142 18.6217C6.63826 19.841 4.63311 24.0138 4.60606 24.068C4.308 24.6912 4.55182 25.4499 5.17517 25.7479C5.36494 25.8292 5.52748 25.8834 5.71705 25.8834C6.17765 25.8834 6.63826 25.6124 6.85508 25.179C6.88211 25.152 8.88728 20.9791 9.51044 19.7598C9.75426 19.2722 9.88977 18.6218 10.0253 17.9174C9.61895 17.538 9.18538 17.1857 8.83304 16.9419C8.75177 16.8336 8.64328 16.7523 8.53497 16.6981L8.53496 16.698Z" fill="white"/>
<path d="M10.3408 0.129295C11.8221 0.154055 13.0028 1.37523 12.9781 2.85646C12.9531 4.33789 11.7321 5.51865 10.2509 5.49368C8.76946 5.46892 7.5887 4.24794 7.61367 2.76651C7.63843 1.28509 8.85941 0.104328 10.3408 0.129295Z" fill="white"/>
<path d="M22.4897 16.5617L20.891 13.5268C20.7555 13.2829 20.4575 13.2017 20.2136 13.31L18.9671 13.9603L18.642 13.2559C18.5337 13.0661 18.371 12.9308 18.1814 12.8765C18.0731 12.8495 17.9376 12.8223 17.8291 12.8495C17.7749 12.7412 17.6936 12.6597 17.6123 12.5785C16.8266 11.9553 15.6072 10.8443 15.2821 10.3565C15.2008 10.221 15.0923 9.97717 14.984 9.73334C14.4421 8.54107 13.4124 6.34634 11.1364 6.34634C11.1364 6.34634 9.9171 6.31931 9.53775 6.31931C6.96368 6.26507 5.28358 8.54128 4.87724 9.35402C4.4979 10.1669 3.63072 12.741 3.46819 13.3101C3.33268 13.825 3.63074 14.3669 4.1456 14.5024C4.22687 14.5294 4.30814 14.5294 4.41663 14.5294C4.85021 14.5294 5.22956 14.2584 5.36509 13.825C5.52764 13.2831 6.36759 10.8173 6.66565 10.1942C6.74692 10.0044 7.04499 9.57101 7.47858 9.16447C7.045 10.9799 7.20754 13.4727 7.28882 14.5295C7.34306 15.2069 8.53533 15.9113 9.21273 16.3719C10.3237 17.1306 12.0306 18.8647 12.383 19.6506C12.654 20.2738 13.8191 23.5795 14.4152 25.0698C14.6049 25.5575 15.0926 25.8828 15.5802 25.8828C15.7427 25.8828 15.8783 25.8557 16.0408 25.8015C16.6912 25.5577 17.0163 24.826 16.7453 24.1756C16.664 23.9859 15.0382 19.4609 14.686 18.648C14.3879 17.9436 13.1144 16.3991 12.2745 15.5049C12.2474 15.4778 12.2474 15.4778 12.2202 15.4506C12.1932 15.017 12.2202 11.8468 12.7078 9.62497C12.8704 9.92303 13.0329 10.2481 13.1955 10.5734C13.358 10.8985 13.4665 11.1695 13.6291 11.4134C14.1439 12.2263 15.5257 13.4185 16.1489 13.9332C16.0676 14.123 16.0946 14.3668 16.1759 14.5563L16.5282 15.2337L15.2817 15.8841C15.0379 16.0196 14.9566 16.3177 15.0649 16.5615L16.6365 19.6234C16.772 19.8672 17.0701 19.9485 17.3139 19.8402L22.2454 17.2931C22.5168 17.1034 22.5981 16.8053 22.4896 16.5615L22.4897 16.5617ZM16.6911 14.2584C16.7994 14.2854 16.8809 14.3126 16.9892 14.3126C17.2872 14.3126 17.5583 14.1771 17.7479 13.9603C17.8834 13.7978 17.9376 13.608 17.9647 13.4185H17.9917C18.0459 13.4455 18.073 13.4727 18.1 13.5268L18.4523 14.2042L17.0434 14.9629L16.6911 14.2584Z" fill="white"/>
</svg>
