<svg width="24" height="24" viewBox="0 0 24 24" fill="none" xmlns="http://www.w3.org/2000/svg">
<path d="M5.49931 12.9939C5.39862 11.8603 5.29776 10.6008 5.2222 9.84502C5.29776 9.92058 5.39862 9.99613 5.47418 10.0717C6.10395 10.6259 7.21239 10.7266 7.99326 10.7266C8.34592 10.7266 8.62303 10.7015 8.74902 10.7015C9.15212 10.6511 9.45437 10.2984 9.40394 9.89529C9.37864 9.49237 9.00085 9.19012 8.59774 9.24037C7.8924 9.31593 6.75886 9.24037 6.43134 8.96326C5.60004 8.23282 4.97027 7.8044 3.38317 7.7793C2.17405 7.7793 1.9472 8.30839 1.97253 8.96326C1.97253 9.84503 2.24963 13.5732 2.42587 14.3793C2.60229 15.1097 3.88694 14.9335 5.24719 14.9335C6.60745 14.9335 7.06093 14.9335 7.5396 15.0595C7.59003 15.8152 7.51447 17.7296 7.38848 19.3419C7.33805 19.8709 7.74114 20.3243 8.24492 20.3494H8.32048C8.79915 20.3494 9.22735 19.9716 9.25249 19.4676C9.50447 16.4448 9.47917 14.6058 9.22737 14.0264C8.90001 13.271 7.91758 13.0443 5.49936 12.9939L5.49931 12.9939Z" fill="white"/>
<path d="M5.24418 5.40471C5.30392 6.41859 4.53042 7.28893 3.51654 7.34867C2.50266 7.40841 1.63231 6.63492 1.57258 5.62103C1.51283 4.60715 2.28633 3.73681 3.30021 3.67707C4.3141 3.61733 5.18444 4.39082 5.24418 5.40471Z" fill="white"/>
<path d="M6.30553 15.4123H1.998L1.26737 8.63601C1.24225 8.30847 0.939841 8.05666 0.587179 8.08181C0.259645 8.10694 0.00783583 8.40934 0.0329816 8.76201L0.81385 16.0925C0.838978 16.3948 1.11609 16.6467 1.41847 16.6467L1.04068 19.6696C0.990254 19.9971 1.24223 20.2993 1.56978 20.3498H1.64534C1.94758 20.3498 2.19954 20.1231 2.24996 19.8207L2.65306 16.6467H4.74389L5.14698 19.8207C5.19742 20.1229 5.44922 20.3498 5.75161 20.3498H5.82717C6.1547 20.2993 6.40651 19.9971 6.35626 19.6696L5.97847 16.6467H6.28071C6.60824 16.6467 6.88533 16.3696 6.88533 16.0421C6.88498 15.7146 6.633 15.4123 6.30545 15.4123H6.30553Z" fill="white"/>
<path d="M16.4826 15.0341C16.9613 14.9334 17.4146 14.9334 18.775 14.9081C20.1352 14.883 21.4201 15.0592 21.5963 14.3539C21.7979 13.5477 22.0497 9.81955 22.0497 8.93787C22.0497 8.3081 21.823 7.75391 20.639 7.75391C19.0773 7.77903 18.4222 8.23258 17.5909 8.93787C17.2633 9.21498 16.1298 9.26541 15.4245 9.21498C15.0214 9.16455 14.6687 9.46696 14.6183 9.8699C14.5678 10.273 14.8702 10.6257 15.2732 10.6761C15.3992 10.6761 15.6763 10.7012 16.029 10.7012C16.7847 10.7012 17.8931 10.6005 18.548 10.0463C18.6487 9.97074 18.7245 9.89518 18.8 9.81963C18.7245 10.5501 18.6236 11.8349 18.5229 12.9685C16.1045 13.0189 15.1221 13.2456 14.7443 14.0265C14.4672 14.6058 14.4672 16.4196 14.7192 19.4677C14.7696 19.9715 15.1725 20.3495 15.6512 20.3495H15.7267C16.2558 20.299 16.6336 19.8457 16.5832 19.3419C16.5078 17.7295 16.4322 15.7898 16.4827 15.034L16.4826 15.0341Z" fill="white"/>
<path d="M20.7333 3.68097C21.7472 3.74072 22.5207 4.61105 22.461 5.62494C22.4014 6.63864 21.5311 7.41231 20.5172 7.35257C19.5033 7.29283 18.7298 6.42249 18.7894 5.40861C18.8491 4.39473 19.7194 3.62124 20.7333 3.68097Z" fill="white"/>
<path d="M23.4353 8.08197C23.1078 8.05685 22.8056 8.28352 22.7551 8.63617L22.0247 15.4125H17.7423C17.4148 15.4125 17.1377 15.6896 17.1377 16.0171C17.1377 16.3446 17.4148 16.6217 17.7423 16.6217H18.0446L17.6668 19.6446C17.6163 19.9721 17.8683 20.2744 18.1959 20.3248H18.2714C18.5737 20.3248 18.8256 20.0981 18.876 19.7957L19.2791 16.6217H21.37L21.7731 19.7957C21.8235 20.0979 22.0753 20.3248 22.3777 20.3248H22.4532C22.7808 20.2744 23.0326 19.9721 22.9823 19.6446L22.6046 16.6217C22.9068 16.6217 23.1839 16.3951 23.2092 16.0675L23.99 8.73702C24.0146 8.43461 23.788 8.1324 23.4353 8.08197Z" fill="white"/>
<path d="M17.6913 11.3066H6.35548C6.27992 11.3066 6.22949 11.3571 6.22949 11.4326V12.2639C6.22949 12.3395 6.27992 12.3899 6.35548 12.3899H10.4112V20.0983C10.4112 20.1739 10.4616 20.2243 10.5372 20.2243H13.5096C13.5852 20.2243 13.6356 20.1739 13.6356 20.0983V12.4151H17.6913C17.7669 12.4151 17.8173 12.3647 17.8173 12.2891V11.4578C17.8424 11.3823 17.7669 11.3067 17.6913 11.3067L17.6913 11.3066Z" fill="white"/>
</svg>
