<svg width="20" height="21" viewBox="0 0 20 21" fill="none" xmlns="http://www.w3.org/2000/svg">
<path d="M2.5 4.66667C2.5 4.22464 2.67559 3.80072 2.98816 3.48816C3.30072 3.17559 3.72464 3 4.16667 3H6.9C7.07483 3.00013 7.24519 3.05525 7.38696 3.15754C7.52874 3.25984 7.63475 3.40413 7.69 3.57L8.93833 7.31417C9.00158 7.50445 8.9941 7.71116 8.91726 7.89637C8.84042 8.08158 8.69938 8.23288 8.52 8.3225L6.63917 9.26417C7.5611 11.3046 9.19538 12.9389 11.2358 13.8608L12.1775 11.98C12.2671 11.8006 12.4184 11.6596 12.6036 11.5827C12.7888 11.5059 12.9956 11.4984 13.1858 11.5617L16.93 12.81C17.096 12.8653 17.2404 12.9714 17.3427 13.1134C17.445 13.2553 17.5 13.4259 17.5 13.6008V16.3333C17.5 16.7754 17.3244 17.1993 17.0118 17.5118C16.6993 17.8244 16.2754 18 15.8333 18H15C8.09667 18 2.5 12.4033 2.5 5.5V4.66667Z" stroke="#68738D" stroke-width="1.5" stroke-linecap="round" stroke-linejoin="round"/>
</svg>
