<svg width="30" height="30" viewBox="0 0 30 30" fill="none" xmlns="http://www.w3.org/2000/svg">
<path d="M26.25 17.8123V24.3748C26.25 24.872 26.0525 25.349 25.7008 25.7006C25.3492 26.0522 24.8723 26.2498 24.375 26.2498H5.625C5.12772 26.2498 4.65081 26.0522 4.29917 25.7006C3.94754 25.349 3.75 24.872 3.75 24.3748V17.8123C3.75 17.5636 3.84877 17.3252 4.02459 17.1493C4.2004 16.9735 4.43886 16.8748 4.6875 16.8748C4.93614 16.8748 5.1746 16.9735 5.35041 17.1493C5.52623 17.3252 5.625 17.5636 5.625 17.8123V24.3748H24.375V17.8123C24.375 17.5636 24.4738 17.3252 24.6496 17.1493C24.8254 16.9735 25.0639 16.8748 25.3125 16.8748C25.5611 16.8748 25.7996 16.9735 25.9754 17.1493C26.1512 17.3252 26.25 17.5636 26.25 17.8123ZM10.9758 10.038L14.0625 6.95015V17.8123C14.0625 18.0609 14.1613 18.2994 14.3371 18.4752C14.5129 18.651 14.7514 18.7498 15 18.7498C15.2486 18.7498 15.4871 18.651 15.6629 18.4752C15.8387 18.2994 15.9375 18.0609 15.9375 17.8123V6.95015L19.0242 10.038C19.2001 10.214 19.4387 10.3128 19.6875 10.3128C19.9363 10.3128 20.1749 10.214 20.3508 10.038C20.5267 9.86213 20.6255 9.62354 20.6255 9.37476C20.6255 9.12598 20.5267 8.88739 20.3508 8.71148L15.6633 4.02398C15.5762 3.93681 15.4728 3.86767 15.359 3.82049C15.2452 3.77331 15.1232 3.74902 15 3.74902C14.8768 3.74902 14.7548 3.77331 14.641 3.82049C14.5272 3.86767 14.4238 3.93681 14.3367 4.02398L9.64922 8.71148C9.47331 8.88739 9.37448 9.12598 9.37448 9.37476C9.37448 9.62354 9.47331 9.86213 9.64922 10.038C9.82513 10.214 10.0637 10.3128 10.3125 10.3128C10.5613 10.3128 10.7999 10.214 10.9758 10.038Z" fill="#316AFF"/>
</svg>
